<?xml version="1.0" encoding="UTF-8"?>
<svg width="120px" height="23px" viewBox="0 0 120 23" version="1.1" xmlns="http://www.w3.org/2000/svg" xmlns:xlink="http://www.w3.org/1999/xlink">
    <title>7C6725F7-F6F3-4FB7-8006-96EED148CDEA</title>
    <g id="Round-3" stroke="none" stroke-width="1" fill="none" fill-rule="evenodd">
        <g id="Marketing-Site---Home-A" transform="translate(-97.000000, -34.000000)" fill-rule="nonzero">
            <g id="Portal_Logo_notag" transform="translate(97.000000, 34.000000)">
                <path d="M8.576,11.6949333 C12.5781333,11.6949333 14.0373333,9.14986667 14.0373333,6.82453333 C14.0373333,4.4352 12.6101333,2.016 8.60586667,2.016 L1.93493333,2.016 L1.93493333,11.6970667 L8.576,11.6970667 L8.576,11.6949333 Z M0.196266667,0.494933333 L8.60586667,0.494933333 C13.9434667,0.494933333 15.7738667,3.69066667 15.7738667,6.79253333 C15.7738667,9.77066667 13.9114667,13.1861333 8.576,13.1861333 L1.93493333,13.1861333 L1.93493333,22.2165333 L0.196266667,22.2165333 L0.196266667,0.494933333 Z" id="Shape" fill="#8A8A8D"></path>
                <path d="M30.0885333,21.0368 C35.0528,21.0368 38.9632,17.344 38.9632,11.2 C38.9632,5.39733333 34.9909333,1.67466667 30.0885333,1.67466667 C25.1861333,1.67466667 21.216,5.39733333 21.216,11.2 C21.216,17.344 25.1242667,21.0368 30.0885333,21.0368 M30.0885333,0.123733333 C36.0149333,0.123733333 40.7637333,4.4672 40.7637333,11.2 C40.7637333,18.2442667 36.1109333,22.5877333 30.0885333,22.5877333 C24.0704,22.5877333 19.4154667,18.2442667 19.4154667,11.2 C19.4154667,4.46506667 24.1642667,0.123733333 30.0885333,0.123733333" id="Shape" fill="#8A8A8D"></path>
                <path d="M54.1824,11.6949333 C58.1546667,11.6949333 59.6416,9.14986667 59.6416,6.82453333 C59.6416,4.40533333 58.1845333,2.016 54.2421333,2.016 L47.168,2.016 L47.168,11.6970667 L54.1824,11.6970667 L54.1824,11.6949333 Z M45.4336,0.494933333 L54.2442667,0.494933333 C59.52,0.494933333 61.4122667,3.69066667 61.4122667,6.79253333 C61.4122667,9.3696 59.9232,12.1301333 56.48,12.9365333 L61.3205333,22.2144 L59.3642667,22.2144 L54.8032,13.1541333 L54.2741333,13.1541333 L47.168,13.1541333 L47.168,22.2144 L45.4314667,22.2144 L45.4314667,0.494933333 L45.4336,0.494933333 Z" id="Shape" fill="#8A8A8D"></path>
                <polygon id="Path" fill="#8A8A8D" points="72.3754667 2.07786667 64.2154667 2.07786667 64.2154667 0.494933333 82.2741333 0.494933333 82.2741333 2.07786667 74.1141333 2.07786667 74.1141333 22.2144 72.3754667 22.2144"></polygon>
                <path d="M86.6922667,14.8906667 L96.2474667,14.8906667 L91.4986667,2.1696 L91.4389333,2.1696 L86.6922667,14.8906667 Z M90.3829333,0.494933333 L92.5866667,0.494933333 L100.904533,22.2165333 L98.9802667,22.2165333 L96.7765333,16.352 L86.1354667,16.352 L83.9616,22.2165333 L82.0394667,22.2165333 L90.3829333,0.494933333 Z" id="Shape" fill="#8A8A8D"></path>
                <polygon id="Path" fill="#8A8A8D" points="104.7936 0.494933333 106.530133 0.494933333 106.530133 20.6314667 119.253333 20.6314667 119.253333 22.2144 104.7936 22.2144"></polygon>
                <path d="M30.0906667,18.3274667 C33.632,18.3274667 36.4202667,15.6928 36.4202667,11.3088 C36.4202667,7.17013333 33.5872,4.51413333 30.0906667,4.51413333 C26.592,4.51413333 23.7589321,7.17013333 23.7589321,11.3088 C23.7568,15.6928 26.5472,18.3274667 30.0906667,18.3274667" id="Path" fill="#FF5000"></path>
            </g>
        </g>
    </g>
</svg>